<svg width="24" height="28" viewBox="0 0 24 28" fill="none" xmlns="http://www.w3.org/2000/svg">
<rect x="0.5" y="0.5" width="23" height="27" rx="2.5" stroke="white"/>
<rect x="5" y="10" width="2" height="2" rx="1" fill="#EDEDED"/>
<rect x="5" y="14" width="2" height="2" rx="1" fill="#EDEDED"/>
<rect x="5" y="18" width="2" height="2" rx="1" fill="#EDEDED"/>
<rect x="5" y="22" width="2" height="2" rx="1" fill="#EDEDED"/>
<rect x="9" y="10" width="2" height="2" rx="1" fill="#EDEDED"/>
<rect x="9" y="14" width="2" height="2" rx="1" fill="#EDEDED"/>
<rect x="9" y="18" width="2" height="2" rx="1" fill="#EDEDED"/>
<rect x="9" y="22" width="2" height="2" rx="1" fill="#EDEDED"/>
<rect x="13" y="10" width="2" height="2" rx="1" fill="#EDEDED"/>
<rect x="13" y="14" width="2" height="2" rx="1" fill="#EDEDED"/>
<rect x="13" y="18" width="2" height="2" rx="1" fill="#EDEDED"/>
<rect x="13" y="22" width="2" height="2" rx="1" fill="#EDEDED"/>
<rect x="17" y="10" width="2" height="2" rx="1" fill="#EDEDED"/>
<rect x="17" y="14" width="2" height="2" rx="1" fill="#EDEDED"/>
<rect x="17" y="18" width="2" height="2" rx="1" fill="#EDEDED"/>
<rect x="17" y="22" width="2" height="2" rx="1" fill="#EDEDED"/>
<mask id="path-18-inside-1_22_181" fill="white">
<rect x="5" y="4" width="14" height="4" rx="0.5"/>
</mask>
<rect x="5" y="4" width="14" height="4" rx="0.5" stroke="#EDEDED" stroke-width="2" mask="url(#path-18-inside-1_22_181)"/>
</svg>
