<svg width="232" height="50" viewBox="0 0 232 50" fill="none" xmlns="http://www.w3.org/2000/svg">
<path fill-rule="evenodd" clip-rule="evenodd" d="M33.4719 41.2944H35.0833C34.1839 41.7816 33.1721 42.1563 32.1603 42.4561L33.4719 41.2944ZM54.457 42.9058H58.2793C58.3917 42.9058 58.4667 42.9432 58.5416 42.9807C58.5791 43.0182 58.5791 43.0931 58.5791 43.2055V47.7773C58.5791 47.8897 58.5791 47.9647 58.5416 48.0021C58.4667 48.0396 58.3917 48.0771 58.2793 48.0771H57.7172C57.6048 48.0771 57.5298 48.0396 57.4924 48.0021C57.4549 47.9647 57.4174 47.8897 57.4174 47.7773V43.9925H55.3189V47.7773C55.3189 47.8897 55.3189 47.9647 55.244 48.0021C55.2065 48.0396 55.1315 48.0771 55.0191 48.0771H54.457C54.3446 48.0771 54.2696 48.0396 54.2322 48.0021C54.1572 47.9647 54.1572 47.8897 54.1572 47.7773V43.2055C54.1572 43.0931 54.1572 43.0182 54.2322 42.9807C54.2696 42.9432 54.3446 42.9058 54.457 42.9058ZM61.8393 46.2409V44.742C61.8393 44.1424 62.0641 43.6552 62.4389 43.2805C62.8511 42.9432 63.4506 42.7559 64.2001 42.7559C64.9496 42.7559 65.5117 42.9432 65.9239 43.2805C66.3361 43.6552 66.5235 44.1424 66.5235 44.742V46.2409C66.5235 46.8405 66.3361 47.3276 65.9239 47.7024C65.5117 48.0396 64.9496 48.227 64.2001 48.227C63.4506 48.227 62.8511 48.0396 62.4389 47.7024C62.0641 47.3276 61.8393 46.8405 61.8393 46.2409ZM65.3618 46.2409V44.742C65.3618 44.4422 65.2494 44.2173 65.062 44.0674C64.8372 43.8801 64.5748 43.8051 64.2001 43.8051C63.8254 43.8051 63.5256 43.8801 63.3382 44.0674C63.1134 44.2173 63.0384 44.4422 63.0384 44.742V46.2409C63.0384 46.5407 63.1134 46.7655 63.3382 46.9154C63.5256 47.1028 63.8254 47.1777 64.2001 47.1777C64.5748 47.1777 64.8372 47.1028 65.062 46.9154C65.2494 46.7655 65.3618 46.5407 65.3618 46.2409ZM69.6338 46.1659V44.8169C69.6338 44.1424 69.8211 43.6552 70.1959 43.2805C70.6081 42.9432 71.1702 42.7559 71.9571 42.7559C72.5192 42.7559 72.9689 42.8683 73.3436 43.1306C73.7184 43.3554 73.9807 43.6552 74.1306 44.0674C74.2055 44.2923 74.1306 44.4422 73.9057 44.5171L73.456 44.667C73.2312 44.742 73.0813 44.667 73.0064 44.4422C72.8565 43.9925 72.4817 43.7676 71.9196 43.7676C71.1702 43.7676 70.7954 44.1049 70.7954 44.742V46.2409C70.7954 46.5407 70.9078 46.7655 71.0952 46.9529C71.2826 47.1403 71.5449 47.2152 71.9196 47.2152C72.4817 47.2152 72.8565 46.9904 73.0064 46.5032C73.0438 46.3908 73.1188 46.3158 73.1937 46.3158C73.2312 46.2784 73.3436 46.2784 73.456 46.3158L73.9057 46.4657C74.168 46.5407 74.2055 46.6906 74.1306 46.9154C73.7933 47.7773 73.0064 48.227 71.8822 48.227C71.1327 48.227 70.5706 48.0396 70.1959 47.7024C69.8211 47.3276 69.6338 46.8405 69.6338 46.1659ZM77.1659 42.9058H80.9882C81.1006 42.9058 81.1756 42.9432 81.2505 42.9807C81.288 43.0182 81.288 43.0931 81.288 43.2055V43.6552C81.288 43.7676 81.288 43.8801 81.2505 43.9175C81.1756 43.955 81.1006 43.9925 80.9882 43.9925H79.6766V47.7773C79.6766 47.8897 79.6392 47.9647 79.6017 48.0021C79.5642 48.0396 79.4518 48.0771 79.3394 48.0771H78.8147C78.7023 48.0771 78.5899 48.0396 78.5524 48.0021C78.5149 47.9647 78.4775 47.8897 78.4775 47.7773V43.9925H77.1659C77.0535 43.9925 76.9411 43.955 76.9036 43.9175C76.8661 43.8801 76.8286 43.7676 76.8286 43.6552V43.2055C76.8286 43.0931 76.8661 43.0182 76.9036 42.9807C76.9411 42.9432 77.0535 42.9058 77.1659 42.9058ZM84.1734 43.8051C84.5482 43.0931 85.2227 42.7559 86.2719 42.7559C87.7334 42.7559 88.4454 43.4304 88.4454 44.8169V47.4026C88.4454 47.5525 88.4454 47.7024 88.3705 47.7773C88.333 47.8523 88.2206 47.8897 88.0707 47.9647C87.6585 48.152 87.0589 48.227 86.2719 48.227C85.3726 48.227 84.8105 48.0771 84.4732 47.8148C84.136 47.5525 83.9861 47.1777 83.9861 46.6156C83.9861 46.0161 84.1734 45.6038 84.5107 45.379C84.8854 45.1167 85.4475 45.0043 86.3094 45.0043C86.3094 45.0043 86.6467 45.0043 87.2837 45.0417V44.7794C87.2837 44.4422 87.2088 44.1799 87.0214 44.03C86.8715 43.8801 86.6092 43.8051 86.2719 43.8051C85.7473 43.8051 85.4101 43.955 85.1852 44.2548C85.1103 44.3672 85.0353 44.4422 84.9979 44.4422C84.9604 44.4796 84.848 44.4422 84.7355 44.4047L84.3608 44.2548C84.136 44.1424 84.061 43.9925 84.1734 43.8051ZM87.2837 47.0653V46.0161C87.0589 45.9786 86.8715 45.9786 86.6842 45.9786C86.4968 45.9786 86.3844 45.9786 86.3094 45.9411C86.197 45.9411 86.1595 45.9411 86.1595 45.9411C85.8223 45.9411 85.56 46.0161 85.4101 46.091C85.2602 46.2034 85.1852 46.3908 85.1852 46.6156C85.1852 46.8405 85.2602 46.9904 85.4101 47.1028C85.5225 47.2152 85.7848 47.2527 86.1595 47.2527C86.5717 47.2527 86.909 47.2527 87.1713 47.1777C87.2463 47.1403 87.2837 47.1028 87.2837 47.0653ZM96.09 44.3297C96.09 44.8169 95.9401 45.1542 95.6028 45.379C96.0525 45.6413 96.2774 46.0535 96.2774 46.6156C96.2774 47.0653 96.1649 47.4026 95.8651 47.6649C95.5654 47.9272 95.1906 48.0771 94.666 48.0771H92.1178C91.9679 48.0771 91.893 48.0396 91.8555 48.0021C91.818 47.9647 91.7805 47.8897 91.7805 47.7773V43.2055C91.7805 43.0931 91.818 43.0182 91.8555 42.9807C91.893 42.9432 91.9679 42.9058 92.1178 42.9058H94.5536C95.0407 42.9058 95.4155 43.0557 95.6778 43.2805C95.9401 43.5428 96.09 43.9175 96.09 44.3297ZM92.9797 44.9668H94.3287C94.5161 44.9668 94.666 44.9293 94.7409 44.8169C94.8534 44.7045 94.9283 44.5921 94.9283 44.4422C94.9283 44.2548 94.8534 44.1424 94.7409 44.03C94.666 43.955 94.5161 43.8801 94.3287 43.8801H92.9797V44.9668ZM92.9797 47.1028H94.4412C94.6285 47.1028 94.7784 47.0278 94.8908 46.9154C95.0033 46.8405 95.0782 46.6906 95.0782 46.5032C95.0782 46.3158 95.0033 46.1659 94.8908 46.0535C94.7784 45.9786 94.6285 45.9036 94.4412 45.9036H92.9797V47.1028ZM106.133 46.9904H106.62C106.732 46.9904 106.807 47.0278 106.845 47.0653C106.882 47.1028 106.92 47.2152 106.92 47.3276V49.1638C106.92 49.2762 106.882 49.3512 106.845 49.3887C106.807 49.4261 106.732 49.4636 106.62 49.4636H106.095C105.983 49.4636 105.908 49.4261 105.833 49.3887C105.796 49.3512 105.758 49.2762 105.758 49.1638V48.0771H99.7999C99.65 48.0771 99.575 48.0396 99.5375 48.0021C99.5001 47.9647 99.4626 47.8897 99.4626 47.7773V43.2055C99.4626 43.0931 99.5001 43.0182 99.5375 42.9807C99.575 42.9432 99.65 42.9058 99.7999 42.9058H100.324C100.474 42.9058 100.549 42.9432 100.587 42.9807C100.624 43.0182 100.662 43.0931 100.662 43.2055V46.9904H102.198V43.2055C102.198 43.0931 102.236 43.0182 102.273 42.9807C102.348 42.9432 102.423 42.9058 102.535 42.9058H103.098C103.21 42.9058 103.285 42.9432 103.322 42.9807C103.36 43.0182 103.397 43.0931 103.397 43.2055V46.9904H104.971V43.2055C104.971 43.0931 104.971 43.0182 105.046 42.9807C105.084 42.9432 105.159 42.9058 105.271 42.9058H105.833C105.945 42.9058 106.02 42.9432 106.058 42.9807C106.133 43.0182 106.133 43.0931 106.133 43.2055V46.9904ZM110.217 42.9058H110.78C110.892 42.9058 110.967 42.9432 111.042 42.9807C111.079 43.0182 111.117 43.0931 111.117 43.2055V45.1167C111.117 45.6038 111.042 46.0535 110.892 46.5782H110.929C111.042 46.2409 111.229 45.9036 111.492 45.5664L113.29 43.0557C113.365 42.9807 113.478 42.9058 113.59 42.9058H114.152C114.265 42.9058 114.34 42.9432 114.377 42.9807C114.452 43.0182 114.452 43.0931 114.452 43.2055V47.7773C114.452 47.8897 114.452 47.9647 114.377 48.0021C114.34 48.0396 114.265 48.0771 114.152 48.0771H113.59C113.478 48.0771 113.403 48.0396 113.365 48.0021C113.29 47.9647 113.29 47.8897 113.29 47.7773V45.9036C113.29 45.4165 113.365 44.9293 113.515 44.4422H113.478C113.365 44.7045 113.14 45.0417 112.878 45.4165L111.117 47.9272C111.004 48.0396 110.929 48.0771 110.78 48.0771H110.217C110.105 48.0771 110.03 48.0396 109.993 48.0021C109.955 47.9647 109.918 47.8897 109.918 47.7773V43.2055C109.918 43.0931 109.955 43.0182 109.993 42.9807C110.03 42.9432 110.105 42.9058 110.217 42.9058ZM121.534 45.9786L122.396 47.7024C122.471 47.8523 122.509 47.9272 122.471 48.0021C122.434 48.0396 122.359 48.0771 122.209 48.0771H121.684C121.497 48.0771 121.385 48.0396 121.347 48.0396C121.272 48.0021 121.197 47.9272 121.16 47.7773L120.523 46.4657C120.448 46.2784 120.335 46.1659 120.223 46.091C120.073 46.0161 119.923 45.9786 119.698 45.9786H119.061V47.7398C119.061 47.8897 119.061 47.9647 118.986 48.0021C118.949 48.0396 118.874 48.0771 118.724 48.0771H118.199C118.087 48.0771 118.012 48.0396 117.937 48.0021C117.9 47.9647 117.9 47.8897 117.9 47.7398V43.2055C117.9 43.0931 117.9 43.0182 117.937 42.9807C118.012 42.9432 118.087 42.9058 118.199 42.9058H118.724C118.874 42.9058 118.949 42.9432 118.986 42.9807C119.061 43.0182 119.061 43.0931 119.061 43.2055V44.8919H119.548H119.623L121.01 43.1306C121.085 43.0557 121.16 42.9807 121.235 42.9432C121.272 42.9432 121.422 42.9058 121.609 42.9058H122.097C122.434 42.9058 122.509 43.0182 122.321 43.2805L120.785 45.1167C121.047 45.2666 121.31 45.5289 121.534 45.9786ZM129.966 42.9058H133.826C133.938 42.9058 134.013 42.9432 134.051 42.9807C134.088 43.0182 134.126 43.0931 134.126 43.2055V43.6552C134.126 43.7676 134.088 43.8801 134.051 43.9175C134.013 43.955 133.938 43.9925 133.826 43.9925H132.477V47.7773C132.477 47.8897 132.477 47.9647 132.402 48.0021C132.364 48.0396 132.289 48.0771 132.177 48.0771H131.615C131.502 48.0771 131.427 48.0396 131.39 48.0021C131.315 47.9647 131.315 47.8897 131.315 47.7773V43.9925H129.966C129.854 43.9925 129.779 43.955 129.741 43.9175C129.666 43.8801 129.666 43.7676 129.666 43.6552V43.2055C129.666 43.0931 129.666 43.0182 129.741 42.9807C129.779 42.9432 129.854 42.9058 129.966 42.9058ZM136.861 46.091V44.9293C136.861 44.2173 137.048 43.6927 137.461 43.318C137.873 42.9432 138.472 42.7559 139.222 42.7559C139.971 42.7559 140.571 42.9432 140.946 43.318C141.358 43.6927 141.583 44.2173 141.583 44.8169V45.4165C141.583 45.7163 141.433 45.8662 141.096 45.8662H138.06V46.2409C138.06 46.5407 138.135 46.803 138.36 46.9904C138.547 47.1403 138.81 47.2152 139.184 47.2152C139.747 47.2152 140.159 47.0653 140.384 46.6906C140.496 46.5782 140.571 46.5032 140.646 46.5032C140.683 46.5032 140.796 46.5032 140.908 46.5782L141.283 46.7655C141.508 46.8779 141.545 47.0278 141.395 47.2527C141.021 47.8897 140.271 48.227 139.184 48.227C138.435 48.227 137.835 48.0396 137.461 47.6649C137.048 47.2901 136.861 46.7655 136.861 46.091ZM140.384 44.9668V44.742C140.384 44.4422 140.309 44.1799 140.084 43.9925C139.896 43.8426 139.597 43.7302 139.222 43.7302C138.847 43.7302 138.547 43.8426 138.36 43.9925C138.135 44.1799 138.06 44.4422 138.06 44.742V44.9668H140.384ZM145.068 42.9058H148.89C149.002 42.9058 149.077 42.9432 149.115 42.9807C149.19 43.0182 149.19 43.0931 149.19 43.2055V47.7773C149.19 47.8897 149.19 47.9647 149.115 48.0021C149.077 48.0396 149.002 48.0771 148.89 48.0771H148.328C148.216 48.0771 148.141 48.0396 148.103 48.0021C148.028 47.9647 148.028 47.8897 148.028 47.7773V43.9925H145.93V47.7773C145.93 47.8897 145.892 47.9647 145.855 48.0021C145.817 48.0396 145.742 48.0771 145.63 48.0771H145.068C144.955 48.0771 144.88 48.0396 144.805 48.0021C144.768 47.9647 144.768 47.8897 144.768 47.7773V43.2055C144.768 43.0931 144.768 43.0182 144.805 42.9807C144.88 42.9432 144.955 42.9058 145.068 42.9058ZM153.537 42.9058H156.759C156.909 42.9058 156.984 42.9432 157.022 42.9807C157.059 43.0182 157.097 43.0931 157.097 43.2055V47.7773C157.097 47.8897 157.059 47.9647 157.022 48.0021C156.984 48.0396 156.909 48.0771 156.759 48.0771H156.235C156.122 48.0771 156.047 48.0396 155.973 48.0021C155.935 47.9647 155.898 47.8897 155.898 47.7773V43.9925H154.361V44.7794C154.361 45.9786 154.211 46.803 153.874 47.2901C153.724 47.5525 153.574 47.7024 153.424 47.8523C153.274 47.9647 153.087 48.0771 152.862 48.1895C152.675 48.2645 152.562 48.1895 152.487 48.0396L152.225 47.515C152.113 47.3651 152.15 47.2527 152.338 47.1403C152.487 47.0653 152.6 46.9904 152.675 46.9529C152.712 46.8779 152.825 46.7655 152.9 46.6156C153.125 46.2784 153.199 45.6413 153.199 44.7045V43.2055C153.199 43.0931 153.237 43.0182 153.274 42.9807C153.349 42.9432 153.424 42.9058 153.537 42.9058ZM160.207 46.2409V44.742C160.207 44.1424 160.432 43.6552 160.844 43.2805C161.256 42.9432 161.818 42.7559 162.568 42.7559C163.317 42.7559 163.879 42.9432 164.292 43.2805C164.704 43.6552 164.929 44.1424 164.929 44.742V46.2409C164.929 46.8405 164.704 47.3276 164.292 47.7024C163.879 48.0396 163.317 48.227 162.568 48.227C161.818 48.227 161.256 48.0396 160.844 47.7024C160.432 47.3276 160.207 46.8405 160.207 46.2409ZM163.73 46.2409V44.742C163.73 44.4422 163.617 44.2173 163.43 44.0674C163.242 43.8801 162.943 43.8051 162.568 43.8051C162.193 43.8051 161.893 43.8801 161.706 44.0674C161.519 44.2173 161.406 44.4422 161.406 44.742V46.2409C161.406 46.5407 161.519 46.7655 161.706 46.9154C161.893 47.1028 162.193 47.1777 162.568 47.1777C162.943 47.1777 163.242 47.1028 163.43 46.9154C163.617 46.7655 163.73 46.5407 163.73 46.2409ZM168.489 42.9058H169.013C169.163 42.9058 169.238 42.9432 169.276 42.9807C169.313 43.0182 169.351 43.0931 169.351 43.2055V45.1167C169.351 45.6038 169.276 46.0535 169.126 46.5782H169.163C169.276 46.2409 169.5 45.9036 169.725 45.5664L171.524 43.0557C171.599 42.9807 171.711 42.9058 171.824 42.9058H172.386C172.498 42.9058 172.611 42.9432 172.648 42.9807C172.686 43.0182 172.686 43.0931 172.686 43.2055V47.7773C172.686 47.8897 172.686 47.9647 172.648 48.0021C172.611 48.0396 172.498 48.0771 172.386 48.0771H171.824C171.711 48.0771 171.636 48.0396 171.599 48.0021C171.561 47.9647 171.524 47.8897 171.524 47.7773V45.9036C171.524 45.4165 171.599 44.9293 171.749 44.4422H171.711C171.599 44.7045 171.412 45.0417 171.112 45.4165L169.351 47.9272C169.276 48.0396 169.163 48.0771 169.013 48.0771H168.489C168.339 48.0771 168.264 48.0396 168.226 48.0021C168.189 47.9647 168.151 47.8897 168.151 47.7773V43.2055C168.151 43.0931 168.189 43.0182 168.226 42.9807C168.264 42.9432 168.339 42.9058 168.489 42.9058ZM176.058 44.0674C176.171 43.6927 176.433 43.3929 176.845 43.1306C177.257 42.9058 177.745 42.7559 178.344 42.7559C179.731 42.7559 180.443 43.2805 180.443 44.3297C180.443 44.8544 180.255 45.2291 179.843 45.379V45.4165C180.33 45.6413 180.555 46.0535 180.555 46.6531C180.555 47.7024 179.843 48.227 178.344 48.227C177.745 48.227 177.257 48.1146 176.845 47.8523C176.433 47.6274 176.133 47.2901 175.983 46.9154C175.871 46.6906 175.946 46.5407 176.208 46.4657L176.62 46.3158C176.77 46.2784 176.845 46.2784 176.92 46.3158C176.995 46.3533 177.033 46.4283 177.07 46.5407C177.295 46.9904 177.707 47.2152 178.382 47.2152C179.019 47.2152 179.356 46.9904 179.356 46.5407C179.356 46.1285 179.131 45.9411 178.681 45.9411H177.707C177.595 45.9411 177.52 45.9036 177.482 45.8662C177.407 45.8287 177.407 45.7537 177.407 45.6413V45.3041C177.407 45.1916 177.407 45.1167 177.482 45.0417C177.52 45.0043 177.595 45.0043 177.707 45.0043H178.606C178.794 45.0043 178.981 44.9293 179.094 44.8544C179.206 44.742 179.244 44.6295 179.244 44.4422C179.244 43.9925 178.944 43.7676 178.344 43.7676C178.044 43.7676 177.782 43.8426 177.595 43.955C177.407 44.1049 177.257 44.2548 177.182 44.4422C177.108 44.5546 177.07 44.6295 176.995 44.667C176.92 44.7045 176.845 44.7045 176.733 44.6295L176.246 44.5171C176.021 44.4422 175.983 44.2923 176.058 44.0674ZM183.441 46.2409V44.742C183.441 44.1424 183.665 43.6552 184.078 43.2805C184.452 42.9432 185.052 42.7559 185.801 42.7559C186.551 42.7559 187.113 42.9432 187.525 43.2805C187.937 43.6552 188.125 44.1424 188.125 44.742V46.2409C188.125 46.8405 187.937 47.3276 187.525 47.7024C187.113 48.0396 186.551 48.227 185.801 48.227C185.052 48.227 184.452 48.0396 184.078 47.7024C183.665 47.3276 183.441 46.8405 183.441 46.2409ZM186.963 46.2409V44.742C186.963 44.4422 186.851 44.2173 186.663 44.0674C186.438 43.8801 186.176 43.8051 185.801 43.8051C185.427 43.8051 185.127 43.8801 184.939 44.0674C184.715 44.2173 184.64 44.4422 184.64 44.742V46.2409C184.64 46.5407 184.715 46.7655 184.939 46.9154C185.127 47.1028 185.427 47.1777 185.801 47.1777C186.176 47.1777 186.438 47.1028 186.663 46.9154C186.851 46.7655 186.963 46.5407 186.963 46.2409ZM192.284 42.9058H195.544C195.657 42.9058 195.732 42.9432 195.769 42.9807C195.844 43.0182 195.844 43.0931 195.844 43.2055V47.7773C195.844 47.8897 195.844 47.9647 195.769 48.0021C195.732 48.0396 195.657 48.0771 195.544 48.0771H194.982C194.87 48.0771 194.795 48.0396 194.758 48.0021C194.683 47.9647 194.683 47.8897 194.683 47.7773V43.9925H193.109V44.7794C193.109 45.9786 192.959 46.803 192.622 47.2901C192.472 47.5525 192.322 47.7024 192.172 47.8523C192.022 47.9647 191.835 48.0771 191.61 48.1895C191.46 48.2645 191.31 48.1895 191.235 48.0396L190.973 47.515C190.898 47.3651 190.935 47.2527 191.085 47.1403C191.235 47.0653 191.347 46.9904 191.422 46.9529C191.497 46.8779 191.572 46.7655 191.685 46.6156C191.872 46.2784 191.984 45.6413 191.984 44.7045V43.2055C191.984 43.0931 191.984 43.0182 192.059 42.9807C192.097 42.9432 192.172 42.9058 192.284 42.9058ZM200.791 42.9058H203.077C203.227 42.9058 203.301 42.9432 203.339 42.9807C203.376 43.0182 203.414 43.0931 203.414 43.2055V47.7773C203.414 47.8897 203.376 47.9647 203.339 48.0021C203.301 48.0396 203.227 48.0771 203.077 48.0771H202.552C202.44 48.0771 202.365 48.0396 202.29 48.0021C202.252 47.9647 202.215 47.8897 202.215 47.7773V46.4283H201.203L200.341 47.8148C200.266 47.9272 200.191 48.0021 200.154 48.0396C200.079 48.0771 199.966 48.0771 199.779 48.0771H199.254C199.104 48.0771 198.992 48.0396 198.955 48.0021C198.917 47.9272 198.955 47.8148 199.029 47.7024L200.004 46.2409C199.329 45.9786 198.992 45.454 198.992 44.667C198.992 44.1049 199.142 43.6927 199.479 43.3929C199.779 43.0557 200.229 42.9058 200.791 42.9058ZM202.215 43.955H200.941C200.716 43.955 200.566 44.03 200.416 44.1424C200.266 44.2923 200.229 44.4422 200.229 44.667C200.229 44.8544 200.266 45.0417 200.416 45.1542C200.566 45.3041 200.716 45.379 200.941 45.379H202.215V43.955ZM211.208 46.9904H211.658C211.77 46.9904 211.845 47.0278 211.92 47.0653C211.958 47.1028 211.958 47.2152 211.958 47.3276V49.1638C211.958 49.2762 211.958 49.3512 211.92 49.3887C211.845 49.4261 211.77 49.4636 211.658 49.4636H211.133C211.021 49.4636 210.946 49.4261 210.909 49.3887C210.871 49.3512 210.834 49.2762 210.834 49.1638V48.0771H207.086C206.974 48.0771 206.899 48.0396 206.861 48.0021C206.824 47.9647 206.786 47.8897 206.786 47.7773V43.2055C206.786 43.0931 206.824 43.0182 206.861 42.9807C206.899 42.9432 206.974 42.9058 207.086 42.9058H207.648C207.761 42.9058 207.873 42.9432 207.911 42.9807C207.948 43.0182 207.986 43.0931 207.986 43.2055V46.9904H210.009V43.2055C210.009 43.0931 210.047 43.0182 210.084 42.9807C210.122 42.9432 210.197 42.9058 210.309 42.9058H210.871C210.984 42.9058 211.096 42.9432 211.133 42.9807C211.171 43.0182 211.208 43.0931 211.208 43.2055V46.9904ZM215.293 42.9058H215.855C215.967 42.9058 216.042 42.9432 216.08 42.9807C216.117 43.0182 216.155 43.0931 216.155 43.2055V45.1167C216.155 45.6038 216.08 46.0535 215.93 46.5782H215.967C216.08 46.2409 216.305 45.9036 216.53 45.5664L218.328 43.0557C218.403 42.9807 218.516 42.9058 218.628 42.9058H219.19C219.303 42.9058 219.415 42.9432 219.452 42.9807C219.49 43.0182 219.527 43.0931 219.527 43.2055V47.7773C219.527 47.8897 219.49 47.9647 219.452 48.0021C219.415 48.0396 219.303 48.0771 219.19 48.0771H218.628C218.516 48.0771 218.441 48.0396 218.403 48.0021C218.366 47.9647 218.328 47.8897 218.328 47.7773V45.9036C218.328 45.4165 218.403 44.9293 218.553 44.4422H218.516C218.403 44.7045 218.216 45.0417 217.916 45.4165L216.155 47.9272C216.08 48.0396 215.967 48.0771 215.855 48.0771H215.293C215.143 48.0771 215.068 48.0396 215.031 48.0021C214.993 47.9647 214.956 47.8897 214.956 47.7773V43.2055C214.956 43.0931 214.993 43.0182 215.031 42.9807C215.068 42.9432 215.143 42.9058 215.293 42.9058ZM223.237 42.9058H223.799C223.912 42.9058 223.987 42.9432 224.062 42.9807C224.099 43.0182 224.099 43.0931 224.099 43.2055V45.1167C224.099 45.6038 224.062 46.0535 223.912 46.5782H223.949C224.062 46.2409 224.249 45.9036 224.511 45.5664L226.31 43.0557C226.385 42.9807 226.498 42.9058 226.61 42.9058H227.172C227.284 42.9058 227.359 42.9432 227.397 42.9807C227.434 43.0182 227.472 43.0931 227.472 43.2055V47.7773C227.472 47.8897 227.434 47.9647 227.397 48.0021C227.359 48.0396 227.284 48.0771 227.172 48.0771H226.61C226.498 48.0771 226.423 48.0396 226.348 48.0021C226.31 47.9647 226.31 47.8897 226.31 47.7773V45.9036C226.31 45.4165 226.385 44.9293 226.535 44.4422H226.498C226.348 44.7045 226.16 45.0417 225.898 45.4165L224.099 47.9272C224.024 48.0396 223.912 48.0771 223.799 48.0771H223.237C223.125 48.0771 223.05 48.0396 223.012 48.0021C222.975 47.9647 222.938 47.8897 222.938 47.7773V43.2055C222.938 43.0931 222.975 43.0182 223.012 42.9807C223.05 42.9432 223.125 42.9058 223.237 42.9058ZM48.0865 41.2569L227.996 40.7323H228.034C228.746 40.7698 229.383 41.2195 229.608 41.8565L231.819 48.0771C231.969 48.4893 231.931 48.939 231.706 49.3137C231.481 49.6884 231.107 49.9133 230.657 49.9508H230.545L37.2567 49.9882C41.4912 48.227 45.276 45.2666 48.0865 41.2569Z" fill="black"/>
<path fill-rule="evenodd" clip-rule="evenodd" d="M38.2317 3.78409C49.9609 11.0539 53.5209 26.493 46.251 38.2222C39.9555 48.34 27.5892 52.3871 16.7969 48.6023C13.4243 47.4406 10.4639 45.6044 7.99064 43.3186C7.95316 43.2811 7.95316 43.2811 7.91569 43.2436C7.84074 43.1687 7.76579 43.0937 7.69085 43.0188C5.66728 41.0702 4.01845 38.8592 2.78183 36.4234C2.74436 36.386 2.70688 36.311 2.66941 36.2361C2.63193 36.1611 2.63193 36.1237 2.59446 36.0862C2.55699 35.9738 2.48204 35.8239 2.40709 35.7115V35.674C0.645843 31.9641 -0.216046 27.8046 0.0462684 23.5326C0.0462684 23.4951 0.0462684 23.4576 0.0462684 23.3827C0.0837418 23.2703 0.0837418 23.1579 0.0837418 23.008C0.0837418 22.933 0.0837418 22.8581 0.121215 22.7831C0.121215 22.7456 0.121215 22.6707 0.121215 22.5958C0.49595 18.8859 1.6951 15.176 3.79361 11.8034C11.0635 0.0742207 26.5025 -3.52323 38.2317 3.78409ZM16.7969 39.0091C17.8836 39.6462 19.0453 40.1333 20.2819 40.5455C28.8633 43.1312 37.9319 38.2971 40.555 29.7157C43.1407 21.1343 38.3066 12.0657 29.7252 9.48005C21.1438 6.85691 12.0752 11.7285 9.48957 20.2724C9.41463 20.5347 9.33968 20.797 9.26473 21.0593C9.26473 21.1343 9.22726 21.1718 9.22726 21.2092C8.89 22.5958 8.77758 23.9823 8.77758 25.3313V25.8934C9.07736 31.2146 12.0003 36.1986 16.7969 39.0091Z" fill="black"/>
<path d="M68.6614 6.29529H56.1078C54.6463 6.29529 54.1592 6.78244 54.1592 8.20643V36.6488C54.1592 38.0728 54.6463 38.5599 56.1078 38.5599H61.2417C62.7031 38.5599 63.1528 38.0728 63.1528 36.6488V28.8918H68.7363C75.7813 28.8918 80.3906 24.8446 80.3906 17.6497C80.3906 10.4174 75.7439 6.29529 68.6614 6.29529ZM67.6496 20.9474H63.1528V14.2397H67.6496C69.7856 14.2397 71.0597 15.6262 71.0597 17.6123C71.0597 19.5984 69.7856 20.9474 67.6496 20.9474ZM109.133 6.25781H103.662C102.612 6.25781 102.163 6.52013 101.75 7.15717L95.5673 17.7622C93.6187 21.0598 93.0191 22.5962 91.2204 27.2055H90.8831C92.3446 22.3714 92.5694 20.9474 92.5694 15.9634V8.20643C92.5694 6.78244 92.1198 6.29529 90.6583 6.29529H85.5244C84.063 6.29529 83.5758 6.78244 83.5758 8.20643V36.6488C83.5758 38.0728 84.063 38.5599 85.5244 38.5599H91.033C92.0073 38.5599 92.532 38.3351 92.9067 37.6605L99.1648 26.9806C101.113 23.6455 101.75 22.2964 103.437 17.6123H103.811C102.575 22.5588 102.088 23.7954 102.088 28.8918V36.6113C102.088 38.0728 102.575 38.5599 104.036 38.5599H109.133C110.557 38.5599 111.081 38.0728 111.081 36.6488V8.20643C111.081 6.74497 110.557 6.25781 109.133 6.25781ZM137.613 6.25781H117.564C116.103 6.25781 115.616 6.74497 115.616 8.20643V36.7612C115.616 38.1102 116.178 38.5599 117.527 38.5599H131.13C137.538 38.5599 141.697 34.5503 141.697 28.1423C141.697 21.6594 137.538 17.6872 131.13 17.6872H124.609V13.6776H137.613C139.036 13.6776 139.524 13.1904 139.524 11.7664V8.20643C139.524 6.74497 139.036 6.25781 137.613 6.25781ZM132.516 28.1048C132.516 30.1284 131.354 31.1776 129.218 31.1776H124.609V25.1069H129.218C131.354 25.1069 132.516 26.1562 132.516 28.1048ZM165.755 6.29529H146.719C145.257 6.29529 144.77 6.78244 144.77 8.20643V36.6488C144.77 38.0728 145.257 38.5599 146.719 38.5599H166.167C167.554 38.5599 168.078 38.0728 168.078 36.6488V32.5267C168.078 31.0652 167.554 30.6155 166.167 30.6155H153.764V26.2686H163.357C164.781 26.2686 165.305 25.744 165.305 24.2825V20.1979C165.305 18.8114 164.781 18.2868 163.357 18.2868H153.764V14.2397H165.755C167.217 14.2397 167.704 13.7525 167.704 12.291V8.20643C167.704 6.78244 167.217 6.29529 165.755 6.29529ZM185.991 6.29529H173.437C171.976 6.29529 171.488 6.78244 171.488 8.20643V36.6488C171.488 38.0728 171.976 38.5599 173.437 38.5599H178.571C180.032 38.5599 180.482 38.0728 180.482 36.6488V28.8918H186.066C193.111 28.8918 197.72 24.8446 197.72 17.6497C197.72 10.4174 193.073 6.29529 185.991 6.29529ZM184.979 20.9474H180.482V14.2397H184.979C187.115 14.2397 188.389 15.6262 188.389 17.6123C188.389 19.5984 187.115 20.9474 184.979 20.9474ZM226.837 36.6862L216.344 7.79422C215.895 6.63255 215.295 6.29529 213.983 6.29529H208.812C207.5 6.29529 206.901 6.5576 206.451 7.86917L195.996 36.6862C195.546 37.9229 195.809 38.5599 197.233 38.5599H201.992C204.278 38.5599 204.84 38.0728 205.327 36.6488L206.376 33.3886H216.157L217.206 36.6488C217.581 38.0728 218.255 38.5599 220.616 38.5599H225.525C226.874 38.5599 227.286 37.9229 226.837 36.6862ZM212.447 20.9474L214.133 26.2686H208.437L210.124 20.8725C211.023 17.8371 210.985 14.5769 210.985 14.5769H211.435C211.435 14.5769 211.548 17.8371 212.447 20.9474Z" fill="black"/>
<path fill-rule="evenodd" clip-rule="evenodd" d="M27.4017 17.1245C31.7486 18.4735 34.1844 23.0453 32.8728 27.3922C31.5612 31.7391 26.952 34.1749 22.6426 32.8633C18.2956 31.5518 15.8224 26.9425 17.134 22.6331C18.483 18.2862 23.0548 15.8129 27.4017 17.1245Z" fill="#E84E22"/>
</svg>
